<?xml version="1.0" encoding="UTF-8"?>
<svg id="Layer_5" data-name="Layer 5" xmlns="http://www.w3.org/2000/svg" viewBox="0 0 1109.87 940">
  <defs>
    <style>
      .cls-1 {
        fill: #000;
      }

      .cls-1, .cls-2 {
        stroke: #000;
        stroke-miterlimit: 10;
      }

      .cls-2 {
        fill: none;
      }
    </style>
  </defs>
  <polygon class="cls-2" points="765.11 479.25 730.22 507.93 679.07 522.5 668.32 509.6 673.03 506.49 665.45 499.32 670.47 494.78 663.06 489.28 668.8 484.5 660.35 445.56 673.03 409.04 750.29 437.42 765.11 479.25"/>
  <line class="cls-2" x1="765.11" y1="479.24" x2="673.03" y2="409.04"/>
  <polyline class="cls-2" points="765.11 479.24 768.46 531.82 769.65 550.7 769.65 587.98 763.44 560.5 768.54 533.18"/>
  <polyline class="cls-2" points="768.54 533.18 715.88 531.1 730.22 507.92"/>
  <polygon class="cls-2" points="715.88 531.1 738.11 553.09 735.92 571.44 715.88 531.1"/>
  <polyline class="cls-2" points="662.81 575.14 707.91 575.45 732.53 613.46"/>
  <polyline class="cls-2" points="707.91 575.44 737.61 576.6 765.11 596.84 732.53 613.46 737.61 576.6"/>
  <polygon class="cls-2" points="804.86 618.59 804.67 618.52 804.44 615.61 804.86 618.59"/>
  <polyline class="cls-2" points="763.44 619.15 763.44 626.94 732.53 613.46"/>
  <line class="cls-2" x1="834.65" y1="614.13" x2="833.33" y2="615.09"/>
  <polygon class="cls-2" points="905.09 489.91 897.69 495.41 902.7 499.95 895.13 507.12 899.84 510.23 889.08 523.13 837.94 508.55 803.05 479.87 817.86 438.05 895.13 409.67 907.8 446.19 899.36 485.13 905.09 489.91"/>
  <line class="cls-2" x1="803.05" y1="479.87" x2="895.13" y2="409.67"/>
  <polyline class="cls-2" points="803.05 479.87 799.71 532.45 798.51 551.33 798.51 588.61 804.72 561.13 799.62 533.8"/>
  <polyline class="cls-2" points="799.62 533.8 852.28 531.73 837.94 508.55"/>
  <polygon class="cls-2" points="852.28 531.73 830.06 553.72 832.25 572.07 852.28 531.73"/>
  <polyline class="cls-2" points="905.34 575.77 860.25 576.07 835.63 614.09"/>
  <polyline class="cls-2" points="860.26 576.07 830.55 577.23 803.05 597.46 835.63 614.08 830.55 577.23"/>
  <polygon class="cls-2" points="763.52 617.6 763.44 618.59 763.44 619.15 763.29 619.21 763.52 617.6"/>
  <polyline class="cls-2" points="804.72 619.21 804.72 627.57 833.33 615.09"/>
  <polyline class="cls-2" points="835.63 614.08 803.05 638 765.39 638 733.51 614.76"/>
  <path class="cls-1" d="M783.59,333.14c-107.61,0-194.85,87.23-194.85,194.84s87.24,194.85,194.85,194.85,194.84-87.24,194.84-194.85-87.23-194.84-194.84-194.84ZM905.09,489.91l-7.4,5.5,5.01,4.54-7.57,7.17,4.71,3.11-10.76,12.9,16.26,52.64-16,53.4-53.71-15.08-2.3,1-30.55,22.29h-37.67l-32.58-23.92-53.71,15.08-16.01-53.4,16.26-52.64-10.75-12.9,4.71-3.11-7.58-7.17,5.02-4.54-7.41-5.5,5.74-4.78-8.45-38.94,12.68-36.52,77.26,28.38,67.57.63,77.27-28.38,12.67,36.52-8.44,38.94,5.73,4.78Z"/>
  <path class="cls-2" d="M899.84,510.23l-4.71-3.11,7.57-7.17-5.01-4.54,7.4-5.5-5.73-4.78,8.44-38.94-12.67-36.52-77.27,28.38-67.57-.63-77.26-28.38-12.68,36.52,8.45,38.94-5.74,4.78,7.41,5.5-5.02,4.54,7.58,7.17-4.71,3.11,10.75,12.9-16.26,52.64,16.01,53.4,53.71-15.08,32.58,23.92h37.67l30.55-22.29,2.3-1,53.71,15.08,16-53.4-16.26-52.64,10.76-12.9ZM804.72,561.13l7.65-15.06,17.68,7.65-25.33,7.41ZM738.1,553.09l17.69-7.64,7.65,15.05-25.34-7.41ZM804.44,615.61l.23,2.91.05.69-3.11-1.67-34.56.28-3.61,1.33v-.56l.08-.99,1.59-20.76,4.54-1.77h28.39l1.53,1.04,3.48,1.36,1.39,18.14Z"/>
  <polygon class="cls-1" points="804.72 619.21 801.61 617.54 767.05 617.82 763.44 619.15 763.44 618.59 763.52 617.6 765.11 596.84 769.65 595.07 798.04 595.07 799.57 596.11 803.05 597.47 804.44 615.61 804.67 618.52 804.72 619.21"/>
  <polygon class="cls-1" points="830.05 553.72 804.72 561.13 812.37 546.07 830.05 553.72"/>
  <polygon class="cls-1" points="763.44 560.5 738.1 553.09 755.79 545.45 763.44 560.5"/>
</svg>