<?xml version="1.0" encoding="UTF-8"?>
<svg id="Layer_3" data-name="Layer 3" xmlns="http://www.w3.org/2000/svg" viewBox="0 0 1022.08 940">
  <defs>
    <style>
      .cls-1 {
        fill: #000;
      }

      .cls-1, .cls-2 {
        stroke: #000;
        stroke-miterlimit: 10;
      }

      .cls-2 {
        fill: #fff;
      }
    </style>
  </defs>
  <path class="cls-1" d="M783.09,319.23c-107.06,0-193.85,86.79-193.85,193.85s86.79,193.84,193.85,193.84,193.85-86.79,193.85-193.84-86.79-193.85-193.85-193.85ZM919.67,578.86c-12.92,14.72-29.15,29.23-56.24,44.18-14.62,8.06-44.16,23.88-85.29,23.38-13.14-.16-52.2-1.19-89.41-28.88-11.2-8.34-43.38-35.22-52.09-81.56-9.89-52.64,18.53-90.62,24.58-98.64,5.45-7.22,35.38-42.74,83.17-47.55,19.85-2,35.59-.8,45.66,2,10.18,2.83,33.42,9.56,56.07,29.64,10.81,9.58,23.27,23.27,32.45,43.66,8.05,17.89,10.02,38.77,10.81,49.66,9.55.72,18.27.57,33.19,1,1.54.04,16.06.88,18.28,12.04.6,2.99,1.9,10.69-4.86,25.45-3.12,6.81-8.24,16.41-16.32,25.62Z"/>
  <path class="cls-2" d="M940.85,527.79c-2.22-11.16-16.74-12-18.28-12.04-14.92-.43-23.64-.28-33.19-1-.79-10.89-2.76-31.77-10.81-49.66-9.18-20.39-21.64-34.08-32.45-43.66-22.65-20.08-45.89-26.81-56.07-29.64-10.07-2.8-25.81-4-45.66-2-47.79,4.81-77.72,40.33-83.17,47.55-6.05,8.02-34.47,46-24.58,98.64,8.71,46.34,40.89,73.22,52.09,81.56,37.21,27.69,76.27,28.72,89.41,28.88,41.13.5,70.67-15.32,85.29-23.38,27.09-14.95,43.32-29.46,56.24-44.18,8.08-9.21,13.2-18.81,16.32-25.62,6.76-14.76,5.46-22.46,4.86-25.45ZM711.51,517.61c0,9.51-7.71,17.21-17.21,17.21s-17.2-7.7-17.2-17.21v-26.46c0-9.5,7.7-17.2,17.2-17.2s17.21,7.7,17.21,17.2v26.46ZM770.49,517.61c0,9.51-7.7,17.21-17.2,17.21s-17.2-7.7-17.2-17.21v-26.46c0-9.5,7.7-17.2,17.2-17.2s17.2,7.7,17.2,17.2v26.46Z"/>
  <path class="cls-1" d="M770.49,491.15v26.46c0,9.51-7.7,17.21-17.2,17.21s-17.2-7.7-17.2-17.21v-26.46c0-9.5,7.7-17.2,17.2-17.2s17.2,7.7,17.2,17.2Z"/>
  <path class="cls-1" d="M711.51,491.15v26.46c0,9.51-7.71,17.21-17.21,17.21s-17.2-7.7-17.2-17.21v-26.46c0-9.5,7.7-17.2,17.2-17.2s17.21,7.7,17.21,17.2Z"/>
</svg>