<?xml version="1.0" encoding="UTF-8"?>
<svg xmlns="http://www.w3.org/2000/svg" xmlns:xlink="http://www.w3.org/1999/xlink" viewBox="0 0 1109.87 940">
  <defs>
    <style>
      .cls-1 {
        fill: #000;
      }

      .cls-1, .cls-2 {
        stroke: #000;
        stroke-miterlimit: 10;
      }

      .cls-2 {
        fill: none;
      }
    </style>
  </defs>
  <g id="Layer_6" data-name="Layer 6">
    <image width="2500" height="2500" transform="translate(512.41 269.3) scale(.21)" xlink:href="../../../../../OneDrive/Desktop/matic-logo.jpg"/>
  </g>
  <g id="Layer_7" data-name="Layer 7">
    <path class="cls-1" d="M770.89,268.24c-143.35,0-259.55,116.21-259.55,259.55s116.2,259.55,259.55,259.55,259.54-116.21,259.54-259.55-116.2-259.55-259.54-259.55ZM924.97,531.01c-.17,5-1.62,8.07-5.46,10.24-26.9,15.23-56.92,32.8-74.64,43.02-2.22,1.28-7.08,1.92-11.11-.46-2.12-1.26-12.36-7.19-27.82-16.1.19-12.05.38-31.2.38-39.92,8.02,4.51,17.92,10.46,32.73,19.33,13.18-7.31,35.12-19.71,51.84-29.51.1-3.17.13-11.62.13-22.64s-.03-23.54-.06-36.45c-15.73-9.1-34.44-19.59-51.91-29.54-13.55,8.21-34.65,20.63-50.57,29.98.02,44.95-.47,95.8-.44,150.82,0,6.65-2.97,9.78-6.27,11.63-32.32,18.14-62.01,36.37-71.6,40.72-3.69,1.68-7.36,4.09-12.98.9-35.46-20.14-64.09-36.43-72.5-41.17-4.19-2.37-7.57-6.23-7.6-11.64-.25-43.01.03-79.58,0-83.23-.09-8.46,4.51-11.65,7.07-13.14,30.35-17.61,57.86-33.58,71.69-41.46,3.66-2.09,7.99-2.73,12.53-.9,2.72,1.1,14,8.14,28.19,16.56-.2,12.7.16,30.75.45,39.83-8.19-4.41-18.7-10.34-34.91-19.69-13.94,8.53-33.97,20-50.57,29.54-.1,20.87.08,39.91,0,59.52,16.78,9.54,34.56,19.83,51.02,29.08,15.94-9.16,34.08-19.72,51.02-29.98.2-41.18-.07-94.25,0-150.36-.13-2.37,1.63-7.74,6.71-10.74,3.66-2.17,33.11-19.33,71.6-41.62,5.7-3.3,11.51-1.93,15.25.09,23.89,12.83,50.93,29.1,72.91,41.97,4.17,2.45,4.87,7.26,4.92,10.3.66,36.17.51,70.5,0,85.02Z"/>
    <path class="cls-2" d="M924.97,531.01c-.17,5-1.62,8.07-5.46,10.24-26.9,15.23-56.92,32.8-74.64,43.02-2.22,1.28-7.08,1.92-11.11-.46-2.12-1.26-12.36-7.19-27.82-16.1.19-12.05.38-31.2.38-39.92,8.02,4.51,17.92,10.46,32.73,19.33,13.18-7.31,35.12-19.71,51.84-29.51.1-3.17.13-11.62.13-22.64s-.03-23.54-.06-36.45c-15.73-9.1-34.44-19.59-51.91-29.54-13.55,8.21-34.65,20.63-50.57,29.98.02,44.95-.47,95.8-.44,150.82,0,6.65-2.97,9.78-6.27,11.63-32.32,18.14-62.01,36.37-71.6,40.72-3.69,1.68-7.36,4.09-12.98.9-35.46-20.14-64.09-36.43-72.5-41.17-4.19-2.37-7.57-6.23-7.6-11.64-.25-43.01.03-79.58,0-83.23-.09-8.46,4.51-11.65,7.07-13.14,30.35-17.61,57.86-33.58,71.69-41.46,3.66-2.09,7.99-2.73,12.53-.9,2.72,1.1,14,8.14,28.19,16.56-.2,12.7.16,30.75.45,39.83-8.19-4.41-18.7-10.34-34.91-19.69-13.94,8.53-33.97,20-50.57,29.54-.1,20.87.08,39.91,0,59.52,16.78,9.54,34.56,19.83,51.02,29.08,15.94-9.16,34.08-19.72,51.02-29.98.2-41.18-.07-94.25,0-150.36-.13-2.37,1.63-7.74,6.71-10.74,3.66-2.17,33.11-19.33,71.6-41.62,5.7-3.3,11.51-1.93,15.25.09,23.89,12.83,50.93,29.1,72.91,41.97,4.17,2.45,4.87,7.26,4.92,10.3.66,36.17.51,70.5,0,85.02Z"/>
  </g>
</svg>