<?xml version="1.0" encoding="UTF-8"?>
<svg id="katman_1" data-name="katman 1" xmlns="http://www.w3.org/2000/svg" viewBox="0 0 476.6 476.6">
  <defs>
    <style>
      .cls-1 {
        fill-rule: evenodd;
      }

      .cls-1, .cls-2 {
        fill: #fff;
      }

      .cls-1, .cls-2, .cls-3 {
        stroke-width: 0px;
      }

      .cls-3 {
        fill: #dc6be5;
      }
    </style>
  </defs>
  <circle class="cls-3" cx="238.3" cy="238.3" r="238.3"/>
  <path class="cls-2" d="M192.5,120.1c-3.3-.5-3.5-.6-1.9-.8,3-.5,10.1.2,14.9,1.3,11.4,2.7,21.7,9.6,32.8,21.8l2.9,3.2,4.2-.7c17.7-2.8,35.7-.6,50.7,6.3,4.1,1.9,10.7,5.7,11.5,6.7.3.3.7,2.3,1.1,4.4,1.1,7.4.6,13-1.7,17.2-1.2,2.3-1.3,3-.5,5,.7,1.6,2.5,2.7,4.3,2.7,3.7,0,7.8-6,9.6-14.4l.7-3.3,1.5,1.7c8,9.1,14.4,21.4,15.5,30.2l.3,2.3-1.4-2.1c-2.3-3.6-4.7-6-7.7-8-5.4-3.6-11.1-4.8-26.2-5.6-13.7-.7-21.4-1.9-29.1-4.4-13-4.2-19.6-9.9-35.1-30.1-6.9-9-11.1-13.9-15.4-17.9-9.5-8.9-18.9-13.7-31-15.5Z"/>
  <path class="cls-2" d="M310.7,140.1c.3-6,1.2-10,2.8-13.6.7-1.4,1.3-2.6,1.4-2.6s-.2,1.1-.6,2.4c-1.2,3.5-1.4,8.3-.6,13.9,1,7.1,1.6,8.1,9.2,15.8,3.5,3.6,7.7,8.1,9.1,10.1l2.7,3.5-2.7-2.5c-3.3-3.1-11-9.1-12.6-10-1.1-.6-1.3-.6-2,.1-.6.6-.8,1.6-.9,6.1-.1,7-1.1,11.6-3.4,16.1-1.3,2.4-1.5,1.9-.3-.8.8-2.1.9-3,.9-9.8,0-13.7-1.6-17-11.2-22.6-2.4-1.4-6.4-3.5-8.9-4.6s-4.4-2-4.3-2.1c.3-.3,9.6,2.4,13.4,3.9,5.6,2.1,6.5,2.4,7.2,2.2.3-.3.6-1.6.8-5.5Z"/>
  <path class="cls-2" d="M198.9,163.5c-6.7-9.2-10.9-23.4-10-33.9l.3-3.3,1.5.3c2.9.5,7.8,2.4,10.2,3.8,6.4,3.9,9.1,8.9,12,21.9.8,3.8,1.9,8.1,2.4,9.6.8,2.4,3.8,7.8,6.3,11.4,1.8,2.6.6,3.8-3.3,3.4-6.1-.5-14.2-6-19.4-13.2Z"/>
  <path class="cls-2" d="M302.5,232.1c-31.5-12.6-42.6-23.5-42.6-42,0-2.7.1-4.9.2-4.9s1.3.9,2.7,2c6.4,5.1,13.5,7.3,33.3,10.1,11.6,1.7,18.2,3.1,24.3,5,19.2,6.3,31.1,19.2,33.9,36.7.8,5.1.3,14.6-1,19.7-1.1,4-4.3,11.1-5.1,11.4-.2.1-.5-.8-.5-2.1-.3-6.6-3.7-13-9.3-17.8-6.3-5.3-14.9-9.7-35.9-18.1Z"/>
  <path class="cls-2" d="M280.4,237.4c-.4-2.3-1.1-5.3-1.5-6.6l-.8-2.4,1.5,1.7c2.1,2.3,3.7,5.3,5.1,9.2,1.1,3,1.2,3.9,1.2,8.8s-.1,5.8-1.1,8.5c-1.5,4.3-3.4,7.3-6.6,10.5-5.8,5.8-13.1,9-23.8,10.4-1.9.2-7.3.6-12,.9-12,.6-19.9,1.9-26.9,4.4-1,.4-1.9.6-2,.5-.3-.3,4.5-3.1,8.5-5.1,5.6-2.7,11.2-4.2,23.7-6.2,6.2-1,12.6-2.3,14.2-2.8,15.1-4.9,23-16.9,20.5-31.8Z"/>
  <path class="cls-2" d="M294.8,262.8c-4.2-8.9-5.1-17.6-2.9-25.6.2-.9.6-1.6.9-1.6.2,0,1.2.5,2.2,1.2,1.9,1.3,5.8,3.5,16.1,9,12.9,7,20.2,12.4,25.2,18.5,4.4,5.4,7.1,11.5,8.4,19,.7,4.2.3,14.5-.8,18.7-3.5,13.5-11.5,24.1-22.9,30.2-1.7.9-3.2,1.6-3.3,1.7-.2,0,.4-1.5,1.4-3.4,3.9-8,4.3-15.8,1.4-24.5-1.8-5.3-5.4-11.8-12.8-22.7-8.7-12.6-10.8-16-12.9-20.5Z"/>
  <path class="cls-2" d="M176.6,311.1c11.7-9.8,26.2-16.8,39.5-18.9,5.7-.9,15.2-.6,20.5.8,8.5,2.2,16.1,7,20,12.7,3.9,5.6,5.5,10.5,7.2,21.4.7,4.3,1.4,8.6,1.6,9.6,1.3,5.6,3.8,10.2,6.9,12.4,4.9,3.6,13.5,3.8,21.9.6,1.4-.6,2.7-.9,2.7-.8.3.3-3.9,3.1-6.9,4.6-4,2-7.2,2.8-11.4,2.8-7.7,0-14.1-3.9-19.4-11.8-1-1.6-3.4-6.2-5.2-10.4-5.6-12.7-8.4-16.6-14.9-20.9-5.7-3.7-13-4.4-18.5-1.7-7.2,3.5-9.2,12.7-4.1,18.5,2.1,2.3,5.9,4.3,9,4.7,5.9.7,10.9-3.7,10.9-9.6,0-3.8-1.5-6-5.2-7.7-5.1-2.3-10.6.4-10.5,5.1,0,2,.9,3.3,2.9,4.2q1.3.6.3.4c-4.7-1-5.8-6.6-2-10.3,4.5-4.5,13.8-2.5,17,3.6,1.3,2.6,1.5,7.6.3,10.7-2.6,6.9-10.3,10.5-18,8.5-5.3-1.3-7.4-2.8-13.8-9.3-11.1-11.3-15.4-13.5-31.3-16l-3.1-.5,3.6-2.7Z"/>
  <path class="cls-1" d="M124.6,108.3c37,44.6,62.4,63,65.2,66.9,2.3,3.2,1.5,6.1-2.5,8.4-2.2,1.3-6.8,2.5-9.1,2.5-2.6,0-3.5-1-3.5-1-1.5-1.4-2.3-1.2-10.1-14.8-10.7-16.5-19.7-30.2-19.9-30.4q-.6-.5,18.8,34c3.1,7.2.6,9.8.6,10.8,0,2.1-.6,3.2-3.2,6-4.3,4.8-6.2,10.1-7.6,21.2-1.6,12.4-5.9,21.2-18.1,36.3-7.1,8.8-8.3,10.4-10.1,14-2.3,4.5-2.9,7-3.1,12.6-.3,6,.3,9.8,2.1,15.5,1.6,5,3.3,8.3,7.6,14.9,3.7,5.7,5.8,9.9,5.8,11.6,0,1.3.3,1.3,6,0,13.7-3.1,24.9-8.5,31.1-15.1,3.9-4.1,4.8-6.4,4.8-12,0-3.7-.1-4.5-1.1-6.6-1.6-3.4-4.6-6.3-11.1-10.8-8.6-5.8-12.2-10.5-13.2-17-.8-5.3.1-9,4.9-18.9,4.9-10.2,6.1-14.6,6.9-24.9.5-6.7,1.3-9.3,3.2-11.4,2-2.2,3.8-2.9,8.8-3.6,8.1-1.1,13.3-3.2,17.5-7.1,3.7-3.4,5.2-6.6,5.4-11.5l.2-3.7-2.1-2.4c-7.4-8.6-79.3-70.5-79.8-70.5.1.2,2.5,3.2,5.6,7ZM141.8,281.5c1.7-3,.8-6.8-2-8.6-2.7-1.8-6.8-.9-6.8,1.4,0,.7.4,1.2,1.3,1.7,1.5.8,1.6,1.6.4,3.3-1.2,1.8-1.1,3.3.3,4.3,2.2,1.7,5.2.8,6.8-2.1Z"/>
  <path class="cls-1" d="M206.1,198.6c-3.8,1.2-7.5,5.2-8.6,9.4-.7,2.6-.3,7.1.7,8.4,1.7,2.2,3.3,2.8,7.7,2.8,8.7-.1,16.2-3.8,17.1-8.4.7-3.8-2.6-9-7.1-11.3-2.4-1.2-7.4-1.7-9.8-.9ZM216.2,206.4c1.3-1.9.8-3.9-1.5-5.3-4.3-2.6-10.9-.5-10.9,3.6,0,2,3.4,4.2,6.5,4.2,2.2,0,5-1.2,5.9-2.5Z"/>
</svg>